<?xml version="1.0" encoding="UTF-8"?>
  <svg xmlns="http://www.w3.org/2000/svg" xmlns:xlink="http://www.w3.org/1999/xlink" width="780" height="370" viewBox="30 120 780 370">
  <g>
    <path style="fill:rgb(97.91%,98.11%,98.15%)" d="M 685.24 250.67 L 664.41 241.53 L 635.71 238.76 L 603.79 241.59 L 572.32 249.57 L 545.92 262.24 L 532.82 274.92 L 531.88 287.79 L 535.60 298.03 L 567.16 308.91 L 626.23 301.66 L 677.84 287.32 L 693.37 263.75 Z M 685.24 250.67 "/>
    <path style="fill:rgb(90.67%,90.81%,90.03%)" d="M 583.92 305.98 L 612.62 273.07 L 532.82 274.92 L 531.88 287.79 L 541.37 297.87 L 557.89 311.09 Z M 583.92 305.98 "/>
    <path style="fill:rgb(94.05%,94.01%,93.89%)" d="M 687.21 271.33 L 532.82 274.92 L 545.92 262.24 L 572.32 249.57 L 603.79 241.59 L 635.71 238.76 L 664.41 241.53 L 685.24 250.67 L 688.94 258.01 Z M 687.21 271.33 "/>
    <path style="fill:rgb(75.88%,75.43%,74.80%)" d="M 413.79 232.68 L 439.02 244.89 L 442.04 224.87 L 413.71 232.49 "/>
    <path style="fill:rgb(80.44%,79.99%,78.99%)" d="M 413.71 232.68 L 413.48 201.69 L 403.87 206.93 Z M 413.71 232.68 "/>
    <path style="fill:rgb(90.67%,90.81%,90.03%)" d="M 314.41 252.15 L 403.87 206.93 L 413.71 232.68 Z M 314.41 252.15 "/>
    <path style="fill:rgb(69.55%,69.35%,68.87%)" d="M 314.41 252.15 L 304.99 272.37 L 335.53 315.08 L 387.22 351.16 L 402.76 280.16 Z M 314.41 252.15 "/>
    <path style="fill:rgb(47.04%,47.79%,48.26%)" d="M 402.76 280.16 L 427.10 287.87 L 396.67 308.33 "/>
    <path style="fill:rgb(83.10%,82.87%,82.27%)" d="M 304.99 272.37 L 318.49 325.90 L 347.10 331.27 Z M 304.99 272.37 "/>
    <path style="fill:rgb(57.73%,57.97%,57.88%)" d="M 335.53 315.08 L 347.10 331.27 L 358.20 330.90 Z M 335.53 315.08 "/>
    <path style="fill:rgb(97.91%,98.11%,98.15%)" d="M 318.49 325.90 L 334.53 390.28 L 383.59 388.70 L 383.70 386.46 L 347.10 331.27 Z M 318.49 325.90 "/>
    <path style="fill:rgb(82.02%,81.8%,81.28%)" d="M 347.10 331.27 L 358.20 330.90 L 387.22 351.16 L 367.37 361.80 Z M 347.10 331.27 "/>
    <path style="fill:rgb(86.68%,85.97%,85.21%)" d="M 334.53 390.28 L 352.64 459.56 L 379.12 427.48 L 383.59 388.70 Z M 334.53 390.28 "/>
    <path style="fill:rgb(59.57%,59.95%,59.84%)" d="M 304.99 272.37 L 330.32 445.87 L 352.64 459.56 Z M 304.99 272.37 "/>
    <path style="fill:rgb(78.88%,78.53%,77.91%)" d="M 330.32 445.87 L 328.72 465.74 L 352.64 459.56 Z M 330.32 445.87 "/>
    <path style="fill:rgb(97.91%,98.11%,98.15%)" d="M 366.06 443.30 L 385.09 461.48 L 328.72 465.74 L 352.78 459.56 Z M 366.06 443.30 "/>
    <path style="fill:rgb(75.88%,75.43%,74.80%)" d="M 304.99 272.37 L 308.80 341.78 L 156.66 438 L 154.22 394.80 Z M 304.99 272.37 "/>
    <path style="fill:rgb(74.73%,74.12%,73.45%)" d="M 156.66 438 L 155.39 415.83 L 136.23 428.47 Z M 156.66 438 "/>
    <path style="fill:rgb(97.91%,98.11%,98.15%)" d="M 49.17 358.32 L 136.23 428.47 L 155.39 415.83 L 155.04 409.37 L 66.78 355.17 Z M 49.17 358.32 "/>
    <path style="fill:rgb(55.65%,55.83%,55.84%)" d="M 304.99 272.37 L 311.13 355.64 L 237.26 387.02 L 308.80 341.78 Z M 304.99 272.37 "/>
    <path style="fill:rgb(62.24%,62.36%,61.84%)" d="M 304.99 272.37 L 318.90 367.66 L 300.05 385.48 L 237.26 387.02 L 311.25 355.71 Z M 304.99 272.37 "/>
    <path style="fill:rgb(74.73%,74.12%,73.45%)" d="M 551.92 138.12 L 508.64 157.70 L 539.80 185.05 Z M 551.92 138.12 "/>
    <path style="fill:rgb(93.03%,93.10%,93.03%)" d="M 539.80 185.05 L 535.39 200.08 L 413.79 232.68 L 413.48 201.69 L 508.64 157.70 L 539.72 184.86 "/>
    <path style="fill:rgb(97.91%,98.11%,98.15%)" d="M 551.63 137.83 L 539.88 184.66 L 588.81 228.78 L 590.89 227.27 L 606.50 219.84 L 579.68 154.04 Z M 551.63 137.83 "/>
    <path style="fill:rgb(77.71%,77.18%,76.59%)" d="M 539.90 184.85 L 535.60 199.92 L 584.19 232.27 L 588.81 228.78 Z M 539.90 184.85 "/>
    <path style="fill:rgb(84.29%,83.83%,83.15%)" d="M 439.01 348.25 L 446.09 359.04 L 551.51 310.67 L 562.82 287.32 Z M 439.01 348.25 "/>
    <path style="fill:rgb(57.73%,57.97%,57.88%)" d="M 439.01 348.25 L 435.91 359.04 L 446.09 359.04 Z M 439.01 348.25 "/>
    <path style="fill:rgb(47.04%,47.79%,48.26%)" d="M 555.32 302.80 L 551.51 310.67 L 583.22 316.17 L 621.62 311.09 L 622.60 301.66 L 583.92 305.98 Z M 555.32 302.80 "/>
    <path style="fill:rgb(57.73%,57.97%,57.88%)" d="M 532.40 302.29 L 526.64 292.58 L 532.82 274.92 L 531.88 287.79 L 541.37 297.87 Z M 532.40 302.29 "/>
    <path style="fill:rgb(57.73%,57.97%,57.88%)" d="M 615.76 302.42 L 621.62 311.09 L 665.09 298.38 L 691.42 279.82 L 687.21 271.33 L 661.49 290.03 Z M 615.76 302.42 "/>
    <path style="fill:rgb(77.71%,77.18%,76.59%)" d="M 687.21 271.33 L 688.94 258.01 L 685.24 250.67 L 695.18 262.55 L 694.69 270.02 L 691.42 279.82 Z M 687.21 271.33 "/>
    <path style="fill:rgb(57.73%,57.97%,57.88%)" d="M 555.32 302.80 L 446.09 359.04 L 551.51 310.67 Z M 555.32 302.80 "/>
    <path style="fill:rgb(57.73%,57.97%,57.88%)" d="M 314.41 252.15 L 488.28 337.11 L 491.92 335.21 Z M 314.41 252.15 "/>
    <path style="fill:rgb(84.29%,83.83%,83.15%)" d="M 314.70 252.15 L 413.79 232.68 L 491.92 335.21 Z M 314.70 252.15 "/>
    <path style="fill:rgb(97.91%,98.11%,98.15%)" d="M 491.92 335.21 L 439.02 244.89 L 413.79 232.68 Z M 491.92 335.21 "/>
    <path style="fill:rgb(75.88%,75.43%,74.80%)" d="M 664.48 257.16 L 676.57 257.16 L 670.53 271.33 L 647.54 279.82 L 662.06 268.49 Z M 664.48 257.16 "/>
    <path style="fill:rgb(55.65%,55.83%,55.84%)" d="M 598.15 451.74 L 575.37 440.28 L 551.92 448.87 L 551.92 458.42 Z M 598.15 451.74 "/>
    <path style="fill:rgb(78.88%,78.53%,77.91%)" d="M 598.15 451.74 L 551.92 458.42 L 575.03 464.15 L 605.52 464.15 Z M 598.15 451.74 "/>
    <path style="fill:rgb(88.82%,88.66%,88.01%)" d="M 677.21 423.09 L 651.75 426.43 L 677.21 464.15 L 694.63 446.01 L 690.61 435.50 Z M 677.21 423.09 "/>
    <path style="fill:rgb(83.10%,82.87%,82.27%)" d="M 651.75 426.43 L 637.01 443.62 L 630.98 467.49 L 663.14 471.79 L 677.21 464.15 Z M 651.75 426.43 "/>
    <path style="fill:rgb(88.82%,88.66%,88.01%)" d="M 598.15 451.74 L 635.62 449.11 L 630.98 467.49 L 605.52 464.15 Z M 598.15 451.74 "/>
    <path style="fill:rgb(75.88%,75.43%,74.80%)" d="M 680.56 423.09 L 689.77 431.51 L 702 427.72 L 702 423.09 L 691.28 418.80 Z M 680.56 423.09 "/>
    <path style="fill:rgb(75.88%,75.43%,74.80%)" d="M 694.63 434.55 L 697.05 438.31 L 705.85 440.28 L 709.12 435.98 L 705.85 431.51 L 699.57 431.51 Z M 694.63 434.55 "/>
    <path style="fill:rgb(71.23%,71.04%,70.47%)" d="M 696.55 443.14 L 696.55 447.26 L 703.59 449.11 L 708.49 443.62 L 699.93 441.32 Z M 696.55 443.14 "/>
    <path style="fill:rgb(62.24%,62.36%,61.84%)" d="M 694.63 449.35 L 691.28 453.35 L 691.28 456.21 L 700.57 457.94 L 703.33 455.32 L 702 451.74 Z M 694.63 449.35 "/>
    <path style="fill:rgb(62.24%,62.36%,61.84%)" d="M 682.99 462.48 L 682.99 467.49 L 691.28 466.60 L 696.55 462.48 L 692.53 458.30 Z M 682.99 462.48 "/>
    <path style="fill:rgb(55.65%,55.83%,55.84%)" d="M 688.68 380.99 L 668.5 391.14 L 647.72 383.53 L 647.72 375.07 Z M 688.68 380.99 "/>
    <path style="fill:rgb(78.88%,78.53%,77.91%)" d="M 688.68 380.99 L 647.72 375.07 L 668.20 370 L 695.21 370 Z M 688.68 380.99 "/>
    <path style="fill:rgb(88.82%,88.66%,88.01%)" d="M 758.73 406.37 L 736.17 403.41 L 758.73 370 L 774.16 386.07 L 770.60 395.37 Z M 758.73 406.37 "/>
    <path style="fill:rgb(83.10%,82.87%,82.27%)" d="M 736.17 403.41 L 723.11 388.18 L 717.77 367.03 L 746.26 363.23 L 758.73 370 Z M 736.17 403.41 "/>
    <path style="fill:rgb(88.82%,88.66%,88.01%)" d="M 688.68 380.99 L 721.88 383.32 L 717.77 367.03 L 695.21 370 Z M 688.68 380.99 "/>
    <path style="fill:rgb(75.88%,75.43%,74.80%)" d="M 761.69 406.37 L 769.86 398.92 L 780.69 402.28 L 780.69 406.37 L 771.19 410.18 Z M 761.69 406.37 "/>
    <path style="fill:rgb(75.88%,75.43%,74.80%)" d="M 774.16 396.22 L 776.32 392.89 L 784.11 391.14 L 787.00 394.95 L 784.11 398.92 L 778.54 398.92 Z M 774.16 396.22 "/>
    <path style="fill:rgb(71.23%,71.04%,70.47%)" d="M 775.87 388.61 L 775.87 384.96 L 782.10 383.32 L 786.44 388.18 L 778.86 390.22 Z M 775.87 388.61 "/>
    <path style="fill:rgb(62.24%,62.36%,61.84%)" d="M 774.16 383.11 L 771.19 379.57 L 771.19 377.03 L 779.43 375.5 L 781.88 377.82 L 780.69 380.99 Z M 774.16 383.11 "/>
    <path style="fill:rgb(62.24%,62.36%,61.84%)" d="M 763.85 371.48 L 763.85 367.03 L 771.19 367.83 L 775.87 371.48 L 772.31 375.17 Z M 763.85 371.48 "/>
  </g>
</svg>
